<svg width="1024" height="1024" viewBox="0 0 1024 1024" xmlns="http://www.w3.org/2000/svg" role="img" aria-label="YouTube Summary Icon Large">
  <defs>
    <linearGradient id="bg" x1="0" y1="0" x2="1" y2="1">
      <stop offset="0%" stop-color="#FFF7F2"/>
      <stop offset="100%" stop-color="#FFEFEA"/>
    </linearGradient>
    <filter id="shadow" x="-20%" y="-20%" width="140%" height="140%">
      <feDropShadow dx="0" dy="14" stdDeviation="18" flood-color="#000" flood-opacity="0.14"/>
    </filter>
  </defs>

  <rect x="32" y="32" width="960" height="960" rx="180" fill="url(#bg)"/>

  <g filter="url(#shadow)">
    <rect x="130" y="190" width="500" height="340" rx="96" fill="#FF0033"/>
    <polygon points="332,286 332,434 472,360" fill="#FFFFFF"/>
  </g>

  <g filter="url(#shadow)">
    <rect x="420" y="430" width="470" height="440" rx="72" fill="#FFFFFF"/>
    <rect x="490" y="520" width="270" height="40" rx="20" fill="#111827" opacity="0.92"/>
    <rect x="490" y="600" width="230" height="36" rx="18" fill="#4B5563" opacity="0.86"/>
    <rect x="490" y="674" width="255" height="36" rx="18" fill="#4B5563" opacity="0.8"/>
    <rect x="490" y="748" width="185" height="36" rx="18" fill="#9CA3AF" opacity="0.72"/>
    <circle cx="800" cy="540" r="28" fill="#22C55E"/>
    <path d="M789 540l11 12 22-26" stroke="#fff" stroke-width="8" fill="none" stroke-linecap="round" stroke-linejoin="round"/>
  </g>
</svg>
